<svg xmlns="http://www.w3.org/2000/svg" xmlns:xlink="http://www.w3.org/1999/xlink" width="1053" height="537" viewBox="0 0 1053 537">
  <metadata><?xpacket begin="﻿" id="W5M0MpCehiHzreSzNTczkc9d"?>
<x:xmpmeta xmlns:x="adobe:ns:meta/" x:xmptk="Adobe XMP Core 5.6-c140 79.160451, 2017/05/06-01:08:21        ">
   <rdf:RDF xmlns:rdf="http://www.w3.org/1999/02/22-rdf-syntax-ns#">
      <rdf:Description rdf:about=""/>
   </rdf:RDF>
</x:xmpmeta>
                                                                                                    
                                                                                                    
                                                                                                    
                                                                                                    
                                                                                                    
                                                                                                    
                                                                                                    
                                                                                                    
                                                                                                    
                                                                                                    
                                                                                                    
                                                                                                    
                                                                                                    
                                                                                                    
                                                                                                    
                                                                                                    
                                                                                                    
                                                                                                    
                                                                                                    
                                                                                                    
                           
<?xpacket end="w"?></metadata>
<defs>
    <style>
      .cls-1 {
        fill: #a61f1f;
        stroke: #000;
        stroke-linejoin: round;
        stroke-width: 3px;
        fill-rule: evenodd;
        filter: url(#filter);
      }
    </style>
    <filter id="filter" x="518" y="641" width="1053" height="537" filterUnits="userSpaceOnUse">
      <feOffset result="offset" dx="-13.5" dy="23.383" in="SourceAlpha"/>
      <feGaussianBlur result="blur"/>
      <feFlood result="flood" flood-color="#818181"/>
      <feComposite result="composite" operator="in" in2="blur"/>
      <feBlend result="blend" in="SourceGraphic"/>
    </filter>
  </defs>
  <g transform="translate(-518 -641)" style="fill: #a61f1f; filter: url(#filter)">
    <path id="Can_Opener" data-name="Can Opener" class="cls-1" d="M811.425,777.014a64.373,64.373,0,0,0,14.1,21.9,65.819,65.819,0,0,0,22.35,14.7,77.8,77.8,0,0,0,29.7,5.4,70.816,70.816,0,0,0,14.7-1.35,67.384,67.384,0,0,0,10.8-3.15,37.936,37.936,0,0,0,9-4.5l4.2,7.2a60.222,60.222,0,0,1-10.2,4.8,96.577,96.577,0,0,1-12.3,3.3,79.536,79.536,0,0,1-16.2,1.5,86.427,86.427,0,0,1-30.6-5.4,75.4,75.4,0,0,1-25.2-15.45,71.64,71.64,0,0,1-16.95-24.15q-6.153-14.1-6.15-31.8a75.767,75.767,0,0,1,23.55-55.95,74.826,74.826,0,0,1,24.6-15.45,80.32,80.32,0,0,1,29.25-5.4,86.679,86.679,0,0,1,15.3,1.2,115.641,115.641,0,0,1,11.7,2.7q5.4,1.8,10.2,3.9l-4.2,7.2a39.621,39.621,0,0,0-8.7-3.6,63.221,63.221,0,0,0-10.35-2.55,83.7,83.7,0,0,0-13.95-1.05,73.886,73.886,0,0,0-28.8,5.4,64.952,64.952,0,0,0-21.9,14.7,65.628,65.628,0,0,0-13.95,21.9A76.111,76.111,0,0,0,811.425,777.014Zm-34.65,15.75a97.35,97.35,0,0,0,22.5,33.15,101.812,101.812,0,0,0,34.2,21.45,118.878,118.878,0,0,0,43.2,7.65,120.308,120.308,0,0,0,30.9-3.6,162.792,162.792,0,0,0,23.1-7.8,89.07,89.07,0,0,0,19.2-11.7l-31.5-55.5a46.248,46.248,0,0,1-10.5,7.8,62.557,62.557,0,0,1-12.6,5.4,55.985,55.985,0,0,1-17.1,2.4,46.406,46.406,0,0,1-17.7-3.3,44.666,44.666,0,0,1-14.1-9,41.97,41.97,0,0,1-9.45-13.35,39.267,39.267,0,0,1-3.45-16.35,40.79,40.79,0,0,1,3.3-16.35,41.245,41.245,0,0,1,9.15-13.35,43.316,43.316,0,0,1,30.75-12.3,52.748,52.748,0,0,1,16.05,2.25,101.463,101.463,0,0,1,12.15,4.65,107.117,107.117,0,0,1,10.5,6.9l31.5-55.5a107.848,107.848,0,0,0-19.2-10.5,144.568,144.568,0,0,0-22.95-7.5,127.483,127.483,0,0,0-30.45-3.3,113.168,113.168,0,0,0-40.8,7.35,99.394,99.394,0,0,0-33.6,21.15,101.029,101.029,0,0,0-22.8,33.15q-8.4,19.35-8.4,43.35Q768.675,773.414,776.775,792.764Zm164.1,57.15h63l6.6-18h60.6l6.6,18h63l-75.9-200.1h-48Zm86.4-62.1,13.5-35.1,13.5,35.1h-27Zm-50.1,38.1,57.9-152.1h11.4l57.9,152.1h-8.4l-5.7-15h-99l-5.7,15h-8.4Zm16.8-22.2h93.6l-46.8-122.7Zm151.2,46.2h62.7v-76.8l54.9,76.8h52.8v-200.1h-62.7v77.1l-55.2-77.1h-52.5v200.1Zm27.9-24v-152.1h7.8l99,138.6v-138.6h7.8v152.1h-7.8l-99-138.6v138.6h-7.8Zm-631.939,264.9a104.946,104.946,0,0,0,55.95,55.95,105.012,105.012,0,0,0,81.6,0,104.946,104.946,0,0,0,55.95-55.95,105.012,105.012,0,0,0,0-81.6,104.956,104.956,0,0,0-55.95-55.946,105.012,105.012,0,0,0-81.6,0,104.956,104.956,0,0,0-55.95,55.946A105.012,105.012,0,0,0,541.131,1090.81Zm25.95-70.65a77.4,77.4,0,0,1,40.95-40.946,77.252,77.252,0,0,1,59.7,0,77.4,77.4,0,0,1,40.95,40.946,77.252,77.252,0,0,1,0,59.7,77.386,77.386,0,0,1-40.95,40.95,77.252,77.252,0,0,1-59.7,0,77.386,77.386,0,0,1-40.95-40.95A77.252,77.252,0,0,1,567.081,1020.16Zm32.1,13.5a42.137,42.137,0,0,1,22.35-22.35,42.153,42.153,0,0,1,32.7,0,42.137,42.137,0,0,1,22.35,22.35,42.153,42.153,0,0,1,0,32.7,42.137,42.137,0,0,1-22.35,22.35,42.153,42.153,0,0,1-32.7,0,42.137,42.137,0,0,1-22.35-22.35A42.153,42.153,0,0,1,599.181,1033.66Zm65.55,79.95a70.222,70.222,0,0,0,36.75-36.75,69.452,69.452,0,0,0,0-53.7,70.2,70.2,0,0,0-36.75-36.746,69.452,69.452,0,0,0-53.7,0,70.2,70.2,0,0,0-36.75,36.746,69.452,69.452,0,0,0,0,53.7,70.222,70.222,0,0,0,36.75,36.75A69.452,69.452,0,0,0,664.731,1113.61ZM907.878,990.764a62.977,62.977,0,0,0-19.65-23.55,84.374,84.374,0,0,0-29.1-13.2,146.35,146.35,0,0,0-35.85-4.2h-63.9v200.1h63.9v-47.7a145.771,145.771,0,0,0,35.85-4.2,84.134,84.134,0,0,0,29.1-13.2,62.883,62.883,0,0,0,19.65-23.55q7.2-14.535,7.2-35.25T907.878,990.764Zm-26.55,58.646a42.479,42.479,0,0,1-13.05,16.2,58.582,58.582,0,0,1-19.95,9.45,94.955,94.955,0,0,1-25.05,3.15h-26.1v47.7h-7.8v-152.1h33.9a94.955,94.955,0,0,1,25.05,3.15,58.582,58.582,0,0,1,19.95,9.45,42.5,42.5,0,0,1,13.05,16.2q4.647,9.9,4.65,23.4T881.328,1049.41Zm-8.25-45a36.793,36.793,0,0,0-12-13.8,50.658,50.658,0,0,0-17.25-7.35,91.166,91.166,0,0,0-20.55-2.25h-26.1v90h26.1a91.166,91.166,0,0,0,20.55-2.25,50.424,50.424,0,0,0,17.25-7.35,36.585,36.585,0,0,0,12-13.8q4.5-8.685,4.5-21.6Q877.578,1013.125,873.078,1004.41Zm-49.8-.6h2.7q12.6,0,18.15,5.85t5.55,16.35q0,10.515-5.55,16.35-5.555,5.85-18.15,5.85h-2.7v-44.4Zm106.795,146.1h120v-52.5h-56.1v-23.1h53.1v-49.8h-53.1v-22.2h54v-52.5h-117.9v200.1Zm30-24v-152.1h67.8v7.2h-60v64.8h57v7.2h-57v65.7h60v7.2h-67.8Zm108,24h62.7v-76.8l54.9,76.8h52.8v-200.1h-62.7v77.1l-55.2-77.1h-52.5v200.1Zm27.9-24v-152.1h7.8l99,138.6v-138.6h7.8v152.1h-7.8l-99-138.6v138.6h-7.8Zm163.5,24h120v-52.5h-56.1v-23.1h53.1v-49.8h-53.1v-22.2h54v-52.5h-117.9v200.1Zm30-24v-152.1h67.8v7.2h-60v64.8h57v7.2h-57v65.7h60v7.2h-67.8Zm145.79-45.6v45.6h-7.8v-152.1h32.4a94.265,94.265,0,0,1,26.1,3.45,62.475,62.475,0,0,1,20.85,10.2,48.807,48.807,0,0,1,13.95,16.646q5.1,9.9,5.1,23.1,0,18.9-9.6,30.75t-25.8,17.55l30,50.4h-9.3l-28.5-48a106.935,106.935,0,0,1-22.8,2.4h-24.6Zm24.6-7.2q27.3,0,42.75-11.85t15.45-34.05q0-22.185-15.45-34.2-15.45-12-42.75-12h-24.6v92.1h24.6Zm-62.4,76.8h63.9v-50.7l30,50.7h75l-37.5-66a64.553,64.553,0,0,0,13.5-13.2,77.631,77.631,0,0,0,9.3-17.4q4.2-10.485,4.2-25.5,0-18.9-6.75-33.446a68.741,68.741,0,0,0-18.75-24.45,82.728,82.728,0,0,0-28.35-15,118.912,118.912,0,0,0-35.55-5.1h-69v200.1Zm63.9-146.1h3.3q11.4,0,19.35,5.1,7.95,5.115,7.95,17.1,0,12.015-7.95,17.1-7.95,5.115-19.35,5.1h-3.3v-44.4Z" style="stroke: inherit; filter: none; fill: inherit"/>
  </g>
  <use transform="translate(-518 -641)" xlink:href="#Can_Opener" style="stroke: #000; filter: none; fill: none"/>
</svg>
