<?xml version="1.0" standalone="no"?>
<!DOCTYPE svg PUBLIC "-//W3C//DTD SVG 20010904//EN"
 "http://www.w3.org/TR/2001/REC-SVG-20010904/DTD/svg10.dtd">
<svg version="1.0" xmlns="http://www.w3.org/2000/svg"
 width="1178.000000pt" height="1178.000000pt" viewBox="0 0 1178.000000 1178.000000"
 preserveAspectRatio="xMidYMid meet">
<metadata>
Created by potrace 1.11, written by Peter Selinger 2001-2013
</metadata>
<g transform="translate(0.000000,1178.000000) scale(0.100000,-0.100000)"
fill="#000000" stroke="none">
<path d="M9678 11775 c-2 -2 -82 -6 -178 -10 -96 -4 -193 -8 -215 -10 -22 -1
-92 -6 -155 -10 -63 -3 -133 -8 -155 -10 -22 -1 -80 -6 -130 -10 -49 -4 -106
-8 -125 -10 -19 -2 -71 -6 -115 -9 -44 -4 -100 -8 -125 -11 -25 -2 -72 -7
-105 -10 -87 -8 -155 -15 -195 -20 -19 -2 -64 -7 -100 -10 -36 -3 -81 -8 -100
-11 -19 -2 -55 -7 -80 -9 -25 -2 -65 -7 -90 -10 -25 -3 -67 -7 -95 -10 -27 -3
-66 -7 -85 -10 -19 -2 -60 -7 -90 -10 -30 -4 -66 -8 -80 -10 -14 -2 -47 -7
-75 -10 -27 -3 -63 -8 -80 -10 -16 -2 -52 -7 -80 -10 -27 -3 -61 -8 -75 -10
-14 -2 -45 -7 -70 -10 -109 -14 -126 -16 -140 -20 -8 -2 -37 -6 -65 -10 -27
-3 -95 -12 -150 -20 -55 -8 -120 -17 -145 -20 -25 -3 -70 -10 -100 -15 -71
-12 -91 -15 -230 -35 -63 -9 -117 -18 -120 -20 -3 -2 -30 -6 -60 -9 -30 -4
-68 -10 -85 -13 -16 -3 -39 -7 -50 -9 -11 -1 -90 -14 -175 -28 -148 -25 -175
-30 -237 -41 -16 -3 -106 -19 -202 -35 -95 -17 -192 -35 -216 -40 -23 -5 -59
-12 -81 -15 -37 -4 -50 -7 -114 -20 -29 -6 -183 -35 -220 -42 -14 -2 -79 -15
-145 -28 -66 -13 -131 -26 -145 -29 -182 -33 -669 -140 -1045 -228 -165 -39
-334 -78 -375 -88 -596 -140 -1537 -424 -1890 -573 -14 -5 -29 -11 -35 -13
-52 -13 -377 -170 -427 -205 -14 -11 -31 -19 -37 -19 -6 0 -11 -4 -11 -9 0 -5
-9 -13 -20 -16 -32 -10 -136 -111 -154 -149 -15 -31 -16 -419 -16 -4573 0
-4322 1 -4539 18 -4565 34 -52 104 -97 252 -161 34 -15 150 -55 180 -62 8 -2
67 -17 130 -34 94 -25 274 -64 445 -95 91 -17 361 -59 455 -71 25 -4 56 -8 70
-10 26 -4 175 -23 245 -30 22 -3 60 -7 85 -10 46 -5 79 -9 185 -20 33 -3 78
-8 100 -10 22 -3 92 -9 155 -15 63 -5 140 -12 170 -15 30 -3 87 -7 125 -10 39
-3 98 -7 133 -10 160 -13 193 -15 287 -20 55 -3 128 -7 161 -10 34 -3 115 -7
180 -10 66 -3 152 -7 192 -10 41 -2 144 -7 230 -10 86 -4 200 -8 252 -10 688
-26 2348 -27 2890 -1 36 2 151 7 255 11 105 3 213 8 240 10 28 1 115 6 195 10
80 4 161 8 180 10 19 2 91 6 160 10 69 4 141 8 160 10 19 2 80 6 135 10 55 4
116 8 135 10 19 2 76 6 125 10 50 3 97 8 105 10 8 2 56 7 105 10 50 3 101 8
115 10 14 2 57 6 95 10 39 3 81 8 95 10 14 2 52 6 85 10 84 9 144 15 185 20
54 7 267 36 287 39 10 2 41 7 68 10 101 15 123 18 265 42 413 70 723 154 905
245 83 41 115 64 153 113 l22 29 0 4531 c0 4297 -1 4533 -17 4563 -57 102
-280 197 -673 289 -80 18 -156 36 -170 38 -14 3 -65 12 -115 21 -49 9 -101 18
-115 21 -31 5 -275 44 -310 49 -14 2 -65 8 -115 15 -49 6 -103 13 -120 15 -63
9 -193 25 -250 30 -33 3 -71 8 -85 10 -14 2 -59 7 -100 11 -41 3 -82 8 -91 9
-8 2 -55 6 -105 10 -49 4 -100 8 -114 10 -14 2 -61 6 -105 10 -44 3 -102 8
-130 10 -44 4 -125 10 -275 20 -25 1 -92 6 -150 10 -58 4 -125 9 -150 10 -25
2 -54 4 -65 5 -17 1 62 24 164 46 19 4 546 134 601 148 8 2 70 18 138 36 68
18 129 33 135 34 7 2 39 10 72 20 33 10 101 29 150 43 1211 340 1906 668 1841
870 -25 79 -190 150 -412 178 -27 4 -56 8 -64 10 -8 2 -51 7 -95 11 -44 3
-100 8 -125 11 -50 5 -867 12 -872 8z"/>
</g>
</svg>
